HIERARCHY
ROOT Hips
{
	OFFSET 0.00000 0.00000 0.00000
	CHANNELS 6 Xposition Yposition Zposition Zrotation Yrotation Xrotation 
	JOINT LHipJoint
	{
		OFFSET 0 0 0
		CHANNELS 3 Zrotation Yrotation Xrotation
		JOINT LeftHip
		{
			OFFSET 1.62964 -1.40469 0.78906
			CHANNELS 3 Zrotation Yrotation Xrotation
			JOINT LeftKnee
			{
				OFFSET 2.29640 -6.30932 0.00000
				CHANNELS 3 Zrotation Yrotation Xrotation
				JOINT LeftAnkle
				{
					OFFSET 2.29451 -6.30412 0.00000
					CHANNELS 3 Zrotation Yrotation Xrotation
					JOINT LeftToe
					{
						OFFSET 0.03611 -0.09921 1.56387
						CHANNELS 3 Zrotation Yrotation Xrotation
						End Site
						{
							OFFSET 0.00000 -0.00000 0.80291
						}
					}
				}
			}
		}
	}
	JOINT RHipJoint
	{
		OFFSET 0 0 0
		CHANNELS 3 Zrotation Yrotation Xrotation
		JOINT RightHip
		{
			OFFSET -1.73712 -1.40469 0.78906
			CHANNELS 3 Zrotation Yrotation Xrotation
			JOINT RightKnee
			{
				OFFSET -2.28137 -6.26801 0.00000
				CHANNELS 3 Zrotation Yrotation Xrotation
				JOINT RightAnkle
				{
					OFFSET -2.28681 -6.28298 0.00000
					CHANNELS 3 Zrotation Yrotation Xrotation
					JOINT RightToe
					{
						OFFSET -0.15927 -0.43759 1.61103
						CHANNELS 3 Zrotation Yrotation Xrotation
						End Site
						{
							OFFSET -0.00000 -0.00000 0.84630
						}
					}
				}
			}
		}
	}
	JOINT lowerback
	{
		OFFSET 0 0 0
		CHANNELS 3 Zrotation Yrotation Xrotation
		JOINT Chest
		{
			OFFSET -0.04227 2.04338 -0.00225
			CHANNELS 3 Zrotation Yrotation Xrotation
			JOINT Chest2
			{
				OFFSET -0.02148 2.04482 -0.04273
				CHANNELS 3 Zrotation Yrotation Xrotation
				JOINT lowerneck
				{
					OFFSET 0 0 0
					CHANNELS 3 Zrotation Yrotation Xrotation
					JOINT Neck
					{
						OFFSET 0.09180 1.44629 0.19359
						CHANNELS 3 Zrotation Yrotation Xrotation
						JOINT Head
						{
							OFFSET 0.00887 1.40645 0.14750
							CHANNELS 3 Zrotation Yrotation Xrotation
							End Site
							{
								OFFSET -0.00669 1.50671 0.03707
							}
						}
					}
				}
				JOINT LeftCollar
				{
					OFFSET 0 0 0
					CHANNELS 3 Zrotation Yrotation Xrotation
					JOINT LeftShoulder
					{
						OFFSET 2.17674 1.86763 -0.06520
CHANNELS 3 Zrotation Xrotation Yrotation
						JOINT LeftElbow
						{
OFFSET 0 -4.657760 0.000000
CHANNELS 3 Zrotation Xrotation Yrotation
							JOINT LeftWrist
							{
OFFSET 0 -3.555390 0.000000
CHANNELS 3 Zrotation Xrotation Yrotation
								JOINT lhand
								{
									OFFSET 0 0 0
CHANNELS 3 Zrotation Xrotation Yrotation
									JOINT LFingers
									{
OFFSET 0 -0.707260 0.000000
CHANNELS 3 Zrotation Xrotation Yrotation
										End Site
										{
OFFSET 0 -0.570220 0.000000
										}
									}
								}
								JOINT LThumb
								{
OFFSET 0 0.000000 0.000000
CHANNELS 3 Zrotation Xrotation Yrotation
									End Site
									{
OFFSET 0 -0.578920 0.578920
									}
								}
							}
						}
					}
				}
				JOINT RightCollar
				{
					OFFSET 0 0 0
					CHANNELS 3 Zrotation Yrotation Xrotation
					JOINT RightShoulder
					{
						OFFSET -2.80694 1.55459 -0.32496
CHANNELS 3 Zrotation Xrotation Yrotation
						JOINT RightElbow
						{
OFFSET 0 -4.719250 -0.000000
CHANNELS 3 Zrotation Xrotation Yrotation
							JOINT RightWrist
							{
OFFSET 0 -3.569900 0.000000
CHANNELS 3 Zrotation Xrotation Yrotation
								JOINT rhand
								{
									OFFSET 0 0 0
CHANNELS 3 Zrotation Xrotation Yrotation
									JOINT RFingers
									{
OFFSET 0 -0.507760 0.000000
CHANNELS 3 Zrotation Xrotation Yrotation
										End Site
										{
OFFSET 0 -0.409370 0.000000
										}
									}
								}
								JOINT RThumb
								{
OFFSET 0 0.000000 0.000000
CHANNELS 3 Zrotation Xrotation Yrotation
									End Site
									{
OFFSET 0 -0.415620 0.415620
									}
								}
							}
						}
					}
				}
			}
		}
	}
}
MOTION
Frames: 4
Frame Time: 0.008333333333333333
6.368445 17.120149 18.090436 184.571775 3.631575 -143.089482 0.000000 0.000000 0.000000 5.315064 -17.737592 -47.236837 1.831829 8.506746 24.264027 -0.182680 11.147398 -12.806372 7.068448 -15.389015 -49.132440 0.000000 0.000000 0.000000 -23.809903 20.271436 -26.713690 -1.843373 -8.531409 24.340349 -0.646487 -7.100105 -19.399664 -4.030944 12.201207 -36.447736 -1.045022 -2.714986 -6.299448 2.291694 -3.505305 6.539478 2.519888 -1.779922 10.752780 -2.334233 3.327449 -8.987359 2.743649 4.800370 15.035267 1.624469 2.522190 5.900286 0.000000 0.000000 0.000000 30.758454 -20.917037 -29.648416 32.897522 -43.251047 13.351771 25.322123 -9.023769 13.150673 0.000000 0.000000 0.000000 -7.125000 0.000000 0.000000 -1.383050 15.490247 -0.963759 0.000000 0.000000 0.000000 -5.017607 7.976219 2.858230 -42.514717 -49.491151 -20.331102 -12.278870 -4.865002 51.940980 0.000000 0.000000 0.000000 7.125000 0.000000 0.000000 62.717917 75.487127 -48.748145
6.299323 17.116640 18.081041 184.912835 3.959125 -142.526778 0.000000 0.000000 0.000000 5.368756 -17.285183 -47.852578 1.846060 8.537809 24.359815 -0.161730 11.011221 -12.972921 6.844103 -15.198188 -48.280589 0.000000 0.000000 0.000000 -24.273940 19.918007 -27.502028 -1.784806 -8.402331 23.943148 -0.545332 -7.107768 -18.315814 -4.071519 12.254927 -36.639948 -1.075653 -2.547028 -6.794413 2.316413 -3.299346 6.358848 2.579862 -1.691101 10.839476 -2.239073 3.271766 -8.689609 2.665157 4.719943 14.916080 1.569356 2.484160 5.818348 0.000000 0.000000 0.000000 30.351880 -20.668106 -30.301902 32.730743 -43.121956 13.237676 25.034887 -9.138660 13.435208 0.000000 0.000000 0.000000 -7.125000 0.000000 0.000000 -1.599436 15.213837 -1.124463 0.000000 0.000000 0.000000 -4.805678 8.224851 2.507434 -42.204369 -49.322747 -20.095460 -12.465048 -4.540083 51.995801 0.000000 0.000000 0.000000 7.125000 0.000000 0.000000 62.813804 75.578752 -48.930270
6.230176 17.115899 18.067224 185.235526 4.157936 -142.145840 0.000000 0.000000 0.000000 5.433838 -17.008520 -48.195641 1.846754 8.539383 24.364663 -0.116389 10.717308 -13.324627 6.312474 -14.716135 -46.207958 0.000000 0.000000 0.000000 -24.541753 19.612176 -27.954741 -1.723885 -8.265044 23.522414 -0.461894 -7.143188 -17.394979 -4.000529 12.160680 -36.303351 -1.031013 -2.419166 -7.032046 2.356866 -3.150426 6.187155 2.615093 -1.622030 10.780471 -1.991664 3.267451 -8.704286 2.519205 4.708613 15.047634 1.485858 2.483365 5.872596 0.000000 0.000000 0.000000 29.999156 -20.385501 -31.032692 32.538872 -42.972427 13.106775 24.788471 -9.452832 13.627340 0.000000 0.000000 0.000000 -7.125000 0.000000 0.000000 -1.781138 15.033812 -1.258946 0.000000 0.000000 0.000000 -4.611052 8.494361 2.176813 -41.805327 -49.103236 -19.793475 -12.879598 -3.967938 51.980418 0.000000 0.000000 0.000000 7.125000 0.000000 0.000000 62.536726 75.733347 -48.846405
6.161575 17.123881 18.042847 185.312631 4.077659 -142.287725 0.000000 0.000000 0.000000 5.119483 -17.092474 -47.853821 1.815721 8.470920 24.153977 -0.083270 10.420163 -13.450098 6.018137 -14.445806 -45.054205 0.000000 0.000000 0.000000 -24.508753 19.346736 -27.452697 -1.640554 -8.072038 22.933915 -0.386983 -7.378856 -16.707039 -3.924784 12.059570 -35.943044 -1.017057 -2.438667 -7.014444 2.362350 -3.171400 6.292115 2.610216 -1.629109 10.889074 -1.817333 3.215988 -8.961672 2.441711 4.631490 15.252750 1.437658 2.450090 5.989586 0.000000 0.000000 0.000000 29.771166 -20.319458 -31.624465 32.308458 -42.791370 12.950021 24.422340 -9.713691 13.549229 0.000000 0.000000 0.000000 -7.125000 0.000000 0.000000 -2.027001 15.161131 -1.426457 0.000000 0.000000 0.000000 -4.397490 8.530711 1.886848 -41.366021 -48.857996 -19.462094 -13.556949 -3.053342 52.145240 0.000000 0.000000 0.000000 7.125000 0.000000 0.000000 62.829144 76.053279 -49.446356
